<svg width="1512" height="1044" viewBox="0 0 1512 1044" fill="none" xmlns="http://www.w3.org/2000/svg">
<circle cx="750.5" cy="521.886" r="456.386" stroke="white" stroke-width="15"/>
<circle cx="748.559" cy="523.827" r="396.217" fill="#F1FBFF" stroke="white" stroke-width="15"/>
<line x1="-1" y1="221.303" x2="57.2283" y2="221.303" stroke="white" stroke-width="15"/>
<line x1="84.4016" y1="221.303" x2="142.63" y2="221.303" stroke="white" stroke-width="15"/>
<line x1="173.685" y1="221.303" x2="231.913" y2="221.303" stroke="white" stroke-width="15"/>
<line x1="262.969" y1="221.303" x2="321.197" y2="221.303" stroke="white" stroke-width="15"/>
<path d="M356.134 221.303H403" stroke="white" stroke-width="15"/>
<line x1="1090.17" y1="221.303" x2="1148.39" y2="221.303" stroke="white" stroke-width="15"/>
<line x1="1179.45" y1="221.303" x2="1237.68" y2="221.303" stroke="white" stroke-width="15"/>
<line x1="1365.78" y1="221.303" x2="1424.01" y2="221.303" stroke="white" stroke-width="15"/>
<line x1="1268.73" y1="221.303" x2="1326.96" y2="221.303" stroke="white" stroke-width="15"/>
<line x1="1455.06" y1="221.303" x2="1513.29" y2="221.303" stroke="white" stroke-width="15"/>
<line x1="-1" y1="1036.5" x2="57.2283" y2="1036.5" stroke="white" stroke-width="15"/>
<line x1="84.4016" y1="1036.5" x2="142.63" y2="1036.5" stroke="white" stroke-width="15"/>
<line x1="173.685" y1="1036.5" x2="231.913" y2="1036.5" stroke="white" stroke-width="15"/>
<line x1="259.087" y1="1036.5" x2="317.315" y2="1036.5" stroke="white" stroke-width="15"/>
<line x1="356.134" y1="1036.5" x2="414.362" y2="1036.5" stroke="white" stroke-width="15"/>
<line x1="441.535" y1="1036.5" x2="499.764" y2="1036.5" stroke="white" stroke-width="15"/>
<line x1="526.937" y1="1036.5" x2="585.165" y2="1036.5" stroke="white" stroke-width="15"/>
<line x1="612.339" y1="1036.5" x2="670.567" y2="1036.5" stroke="white" stroke-width="15"/>
<line x1="697.74" y1="1036.5" x2="755.969" y2="1036.5" stroke="white" stroke-width="15"/>
<line x1="783.142" y1="1036.5" x2="841.37" y2="1036.5" stroke="white" stroke-width="15"/>
<line x1="868.543" y1="1036.5" x2="926.772" y2="1036.5" stroke="white" stroke-width="15"/>
<line x1="953.945" y1="1036.5" x2="1012.17" y2="1036.5" stroke="white" stroke-width="15"/>
<line x1="1039.35" y1="1036.5" x2="1097.57" y2="1036.5" stroke="white" stroke-width="15"/>
<line x1="1124.75" y1="1036.5" x2="1182.98" y2="1036.5" stroke="white" stroke-width="15"/>
<line x1="1210.15" y1="1036.5" x2="1268.38" y2="1036.5" stroke="white" stroke-width="15"/>
<line x1="1295.55" y1="1036.5" x2="1353.78" y2="1036.5" stroke="white" stroke-width="15"/>
<line x1="1380.95" y1="1036.5" x2="1439.18" y2="1036.5" stroke="white" stroke-width="15"/>
<line x1="1466.35" y1="1036.5" x2="1524.58" y2="1036.5" stroke="white" stroke-width="15"/>
<circle cx="112.5" cy="505.5" r="84.5" fill="white"/>
<line x1="1308" y1="12.5" x2="1428" y2="12.5" stroke="white" stroke-width="25"/>
</svg>
